<svg width="114" height="38" viewBox="0 0 114 38" fill="none" xmlns="http://www.w3.org/2000/svg">
<path d="M15.09 37.576C12.594 37.576 10.322 37.16 8.274 36.328C6.258 35.496 4.562 34.312 3.186 32.776C1.81 31.24 0.866 29.448 0.354 27.4L6.642 24.952C7.282 26.84 8.354 28.344 9.858 29.464C11.362 30.552 13.058 31.096 14.946 31.096C16.034 31.096 16.978 30.92 17.778 30.568C18.61 30.184 19.25 29.672 19.698 29.032C20.178 28.392 20.418 27.672 20.418 26.872C20.418 26.104 20.178 25.448 19.698 24.904C19.218 24.36 18.434 23.912 17.346 23.56L11.01 21.4C8.386 20.504 6.434 19.272 5.154 17.704C3.906 16.104 3.282 14.152 3.282 11.848C3.282 9.736 3.842 7.848 4.962 6.184C6.114 4.488 7.65 3.144 9.57 2.152C11.522 1.16 13.714 0.663999 16.146 0.663999C18.418 0.663999 20.466 1.048 22.29 1.816C24.146 2.552 25.698 3.608 26.946 4.984C28.194 6.36 29.058 7.992 29.538 9.88L23.298 12.328C22.786 10.696 21.874 9.432 20.562 8.536C19.282 7.608 17.746 7.144 15.954 7.144C14.898 7.144 13.97 7.32 13.17 7.672C12.402 7.992 11.794 8.456 11.346 9.064C10.93 9.672 10.722 10.392 10.722 11.224C10.722 12.088 10.978 12.808 11.49 13.384C12.002 13.96 12.802 14.44 13.89 14.824L20.082 16.984C22.706 17.88 24.658 19.096 25.938 20.632C27.25 22.168 27.906 24.072 27.906 26.344C27.906 28.456 27.314 30.36 26.13 32.056C24.978 33.752 23.426 35.096 21.474 36.088C19.554 37.08 17.426 37.576 15.09 37.576ZM31.2848 37L36.3728 0.663999H43.6208L38.5328 37H31.2848ZM43.8004 37L47.4484 10.792H54.6964L51.0484 37H43.8004ZM47.7844 8.44L48.7924 1.24H56.0404L55.0324 8.44H47.7844ZM70.332 37.576C67.804 37.576 65.532 37.016 63.516 35.896C61.532 34.776 59.964 33.24 58.812 31.288C57.692 29.336 57.132 27.128 57.132 24.664C57.132 22.648 57.516 20.76 58.284 19C59.052 17.24 60.108 15.704 61.452 14.392C62.796 13.08 64.348 12.056 66.108 11.32C67.9 10.584 69.82 10.216 71.868 10.216C73.852 10.216 75.66 10.568 77.292 11.272C78.924 11.944 80.3 12.888 81.42 14.104C82.54 15.32 83.308 16.744 83.724 18.376L77.34 20.872C76.988 19.56 76.316 18.536 75.324 17.8C74.332 17.064 73.148 16.696 71.772 16.696C70.332 16.696 69.068 17.064 67.98 17.8C66.924 18.536 66.092 19.512 65.484 20.728C64.908 21.944 64.62 23.256 64.62 24.664C64.62 25.944 64.86 27.064 65.34 28.024C65.82 28.984 66.492 29.736 67.356 30.28C68.252 30.824 69.276 31.096 70.428 31.096C71.932 31.096 73.244 30.696 74.364 29.896C75.484 29.096 76.316 28.04 76.86 26.728L82.956 29.656C82.348 31.192 81.42 32.568 80.172 33.784C78.956 34.968 77.5 35.896 75.804 36.568C74.108 37.24 72.284 37.576 70.332 37.576ZM99.9514 37.576C97.2954 37.576 94.9914 37.016 93.0394 35.896C91.0874 34.744 89.5834 33.192 88.5274 31.24C87.5034 29.288 86.9914 27.128 86.9914 24.76C86.9914 22.744 87.3434 20.872 88.0474 19.144C88.7514 17.384 89.7434 15.832 91.0234 14.488C92.3034 13.144 93.7914 12.104 95.4874 11.368C97.1834 10.6 99.0234 10.216 101.007 10.216C103.663 10.216 105.903 10.744 107.727 11.8C109.551 12.824 110.927 14.232 111.855 16.024C112.815 17.816 113.295 19.848 113.295 22.12C113.295 22.728 113.247 23.336 113.151 23.944C113.055 24.552 112.927 25.208 112.767 25.912H93.0874L93.4714 20.632H109.023L105.423 23.032C105.839 21.688 105.919 20.488 105.663 19.432C105.407 18.376 104.863 17.544 104.031 16.936C103.231 16.296 102.207 15.976 100.959 15.976C99.3274 15.976 98.0314 16.392 97.0714 17.224C96.1114 18.056 95.4074 19.16 94.9594 20.536C94.5434 21.912 94.3354 23.432 94.3354 25.096C94.3354 26.408 94.5594 27.544 95.0074 28.504C95.4554 29.432 96.1114 30.136 96.9754 30.616C97.8394 31.096 98.8794 31.336 100.095 31.336C101.407 31.336 102.559 31.064 103.551 30.52C104.543 29.976 105.311 29.256 105.855 28.36L111.519 31.288C110.911 32.568 110.031 33.688 108.879 34.648C107.727 35.576 106.383 36.296 104.847 36.808C103.343 37.32 101.711 37.576 99.9514 37.576Z" fill="#E6E7E8"/>
</svg>
